<?xml version="1.0" encoding="utf-8"?>
<svg version="1.1" xmlns:xlink="http://www.w3.org/1999/xlink" width="95px" height="91px" xmlns="http://www.w3.org/2000/svg">
  <g transform="matrix(1 0 0 1 -264 0 )">
    <path d="M 91.8028846153846 32.6269691241336  C 93.9342948717949 32.9710144927536  95 33.8502415458937  95 35.2646502835539  C 95 36.105650073514  94.5052083333333 37.0231043898341  93.515625 38.0170132325142  L 72.7914663461539 58.3156899810964  L 77.7013221153846 86.9861373660996  C 77.7393830128205 87.2537282083596  77.7584134615385 87.6360008401596  77.7584134615385 88.1329552614997  C 77.7584134615385 88.9357277882798  77.55859375 89.6142617097248  77.1589543269231 90.1685570258349  C 76.7593149038461 90.722852341945  76.1788862179487 91  75.4176682692308 91  C 74.6945112179487 91  73.9332932692308 90.77063642092  73.1340144230769 90.3119092627599  L 47.5 76.7794580970384  L 21.8659855769231 90.3119092627599  C 21.0286458333333 90.77063642092  20.2674278846154 91  19.5823317307692 91  C 18.7830528846154 91  18.18359375 90.722852341945  17.7839543269231 90.1685570258349  C 17.3843149038462 89.6142617097248  17.1844951923077 88.9357277882798  17.1844951923077 88.1329552614997  C 17.1844951923077 87.9035916824197  17.2225560897436 87.5213190506196  17.2986778846154 86.9861373660996  L 22.2085336538462 58.3156899810964  L 1.42728365384615 38.0170132325142  C 0.475761217948718 36.9848771266541  0 36.067422810334  0 35.2646502835539  C 0 33.8502415458937  1.06570512820513 32.9710144927536  3.19711538461538 32.6269691241336  L 31.8569711538462 28.4410838059231  L 44.7025240384615 2.35097668557025  C 45.4256810897436 0.783658895190081  46.3581730769231 0  47.5 0  C 48.6418269230769 0  49.5743189102564 0.783658895190081  50.2974759615385 2.35097668557025  L 63.1430288461538 28.4410838059231  L 91.8028846153846 32.6269691241336  Z " fill-rule="nonzero" fill="#f9ff8b" stroke="none" transform="matrix(1 0 0 1 264 0 )" />
  </g>
</svg>