<?xml version="1.0" encoding="utf-8"?>
<svg version="1.1" xmlns:xlink="http://www.w3.org/1999/xlink" width="50px" height="43px" xmlns="http://www.w3.org/2000/svg">
  <g transform="matrix(1 0 0 1 -162 -511 )">
    <path d="M 25.6417410714286 20.3522135416667  C 25.8091517857143 20.1842447916667  25.8928571428571 19.9696180555556  25.8928571428571 19.7083333333333  C 25.8928571428571 19.4470486111111  25.8091517857143 19.232421875  25.6417410714286 19.064453125  C 25.4743303571429 18.896484375  25.2604166666667 18.8125  25 18.8125  C 23.7723214285714 18.8125  22.7213541666667 19.2510850694444  21.8470982142857 20.1282552083333  C 20.9728422619048 21.0054253472222  20.5357142857143 22.0598958333333  20.5357142857143 23.2916666666667  C 20.5357142857143 23.5529513888889  20.6194196428571 23.767578125  20.7868303571429 23.935546875  C 20.9542410714286 24.103515625  21.1681547619048 24.1875  21.4285714285714 24.1875  C 21.6889880952381 24.1875  21.9029017857143 24.103515625  22.0703125 23.935546875  C 22.2377232142857 23.767578125  22.3214285714286 23.5529513888889  22.3214285714286 23.2916666666667  C 22.3214285714286 22.5451388888889  22.5818452380952 21.9105902777778  23.1026785714286 21.3880208333333  C 23.6235119047619 20.8654513888889  24.2559523809524 20.6041666666667  25 20.6041666666667  C 25.2604166666667 20.6041666666667  25.4743303571429 20.5201822916667  25.6417410714286 20.3522135416667  Z M 30.0502232142857 18.2805989583333  C 31.4453125 19.6803385416667  32.1428571428571 21.3693576388889  32.1428571428571 23.34765625  C 32.1428571428571 25.3259548611111  31.4453125 27.0149739583333  30.0502232142857 28.4147135416667  C 28.6551339285714 29.814453125  26.9717261904762 30.5143229166667  25 30.5143229166667  C 23.0282738095238 30.5143229166667  21.3448660714286 29.814453125  19.9497767857143 28.4147135416667  C 18.5546875 27.0149739583333  17.8571428571429 25.3259548611111  17.8571428571429 23.34765625  C 17.8571428571429 21.3693576388889  18.5546875 19.6803385416667  19.9497767857143 18.2805989583333  C 21.3448660714286 16.880859375  23.0282738095238 16.1809895833333  25 16.1809895833333  C 26.9717261904762 16.1809895833333  28.6551339285714 16.880859375  30.0502232142857 18.2805989583333  Z M 3.57142857142857 35  L 3.57142857142857 39  L 46.4285714285714 39  L 46.4285714285714 35  L 3.57142857142857 35  Z M 32.5753348214286 30.9482421875  C 34.66796875 28.8486328125  35.7142857142857 26.3151041666667  35.7142857142857 23.34765625  C 35.7142857142857 20.3802083333333  34.66796875 17.8466796875  32.5753348214286 15.7470703125  C 30.4827008928571 13.6474609375  27.9575892857143 12.59765625  25 12.59765625  C 22.0424107142857 12.59765625  19.5172991071429 13.6474609375  17.4246651785714 15.7470703125  C 15.33203125 17.8466796875  14.2857142857143 20.3802083333333  14.2857142857143 23.34765625  C 14.2857142857143 26.3151041666667  15.33203125 28.8486328125  17.4246651785714 30.9482421875  C 19.5172991071429 33.0478515625  22.0424107142857 34.09765625  25 34.09765625  C 27.9575892857143 34.09765625  30.4827008928571 33.0478515625  32.5753348214286 30.9482421875  Z M 7.14285714285714 2  L 7.14285714285714 6  L 17.8571428571429 6  L 17.8571428571429 2  L 7.14285714285714 2  Z M 3.57142857142857 8  L 3.57142857142857 11  L 46.4285714285714 11  L 46.4285714285714 7.44661458333333  L 46.4285714285714 4  L 23.3258928571429 4  L 21.5401785714286 8  L 3.57142857142857 8  Z M 48.9536830357143 1.0498046875  C 49.6512276785714 1.74967447916667  50 2.59418402777778  50 3.58333333333333  L 50 39.4166666666667  C 50 40.4058159722222  49.6512276785714 41.2503255208333  48.9536830357143 41.9501953125  C 48.2561383928571 42.6500651041667  47.4144345238095 43  46.4285714285714 43  L 3.57142857142857 43  C 2.58556547619048 43  1.74386160714286 42.6500651041667  1.04631696428571 41.9501953125  C 0.348772321428571 41.2503255208333  0 40.4058159722222  0 39.4166666666667  L 0 3.58333333333333  C 0 2.59418402777778  0.348772321428571 1.74967447916667  1.04631696428571 1.0498046875  C 1.74386160714286 0.349934895833335  2.58556547619048 0  3.57142857142857 0  L 46.4285714285714 0  C 47.4144345238095 0  48.2561383928571 0.349934895833335  48.9536830357143 1.0498046875  Z " fill-rule="nonzero" fill="#901111" stroke="none" transform="matrix(1 0 0 1 162 511 )" />
  </g>
</svg>