<?xml version="1.0" encoding="utf-8"?>
<svg version="1.1" xmlns:xlink="http://www.w3.org/1999/xlink" width="300px" height="170px" xmlns="http://www.w3.org/2000/svg">
  <g transform="matrix(1 0 0 1 -25 -28 )">
    <path d="M 25 28  L 325 28  L 325 198  L 25 198  L 25 28  " fill-rule="nonzero" fill="#cccccc" stroke="none" />
    <path d="M 37 40  L 313 40  L 313 186  L 37 186  L 37 40  " fill-rule="nonzero" fill="#ffffff" stroke="none" />
    <path d="M 193.75 79  C 186.61 79  181 73.39  181 66.25  C 181 59.11  186.61 53.5  193.75 53.5  C 200.89 53.5  206.5 59.11  206.5 66.25  C 206.5 73.39  200.89 79  193.75 79  " fill-rule="nonzero" fill="#cccccc" stroke="none" />
    <path d="M 42 182  L 42 106.65  L 108.75 72.4  L 202.2 135.42  L 255.6 92.95  L 309 135.42  L 309 182  L 42 182  " fill-rule="nonzero" fill="#169bd5" stroke="none" />
  </g>
</svg>